<svg width="30" height="30" viewBox="0 0 30 30" fill="none" xmlns="http://www.w3.org/2000/svg">
<path d="M26.4,0H3.6C1.7,0,0,1.7,0,3.6v22.8C0,28.3,1.7,30,3.6,30h22.8c1.9,0,3.6-1.7,3.6-3.6V3.6C30,1.7,28.3,0,26.4,0z M9.3,11.4
	v13.5H4.9V11.4C4.9,11.4,9.3,11.4,9.3,11.4z M4.9,7.5c0-1,0.9-1.8,2.1-1.8s2.2,0.8,2.2,1.8S8.5,9.3,7.2,9.3S4.9,8.5,4.9,7.5z
	 M25.1,25.1h-4.4c0,0,0-6.6,0-7.2c0-1.5-0.8-2.8-2.5-2.8l0,0c-1.8,0-2.4,1.5-2.4,2.8c0,0.6,0,7.2,0,7.2h-4.4V11.6h4.4v1.8
	c0,0,1.3-1.8,4.2-1.8c2.8,0,5.1,2,5.1,5.9V25.1z" fill="black"/>
</svg>
